<?xml version="1.0"?>
<svg xmlns="http://www.w3.org/2000/svg" xmlns:xlink="http://www.w3.org/1999/xlink" xmlns:svgjs="http://svgjs.com/svgjs" version="1.1" width="512" height="512" x="0" y="0" viewBox="0 0 511 511.99965" style="enable-background:new 0 0 512 512" xml:space="preserve" class=""><g><path xmlns="http://www.w3.org/2000/svg" d="m424.261719 113.527344c-62.714844-108.617188-201.640625-145.796875-310.226563-82.984375-108.808594 62.9375-145.765625 201.105469-82.917968 309.964843 33.648437 58.277344 89.230468 95.972657 150.296874 108.710938 5.882813 1.226562 9.667969 6.96875 8.460938 12.855469l-8.839844 43.136719c-.976562 4.765624 4.132813 8.449218 8.347656 6.019531l151.796876-87.640625c108.5625-62.679688 145.757812-201.5 83.082031-310.0625zm0 0" fill="#0084ff" data-original="#338def" style="" class=""/><path xmlns="http://www.w3.org/2000/svg" d="m220.78125 462.074219c1.207031-5.886719-2.578125-11.628907-8.460938-12.855469-61.066406-12.738281-116.648437-50.4375-150.292968-108.710938-62.851563-108.859374-25.894532-247.027343 82.914062-309.964843 31.039063-17.953125 64.558594-27.726563 98.070313-30.007813-43.519531-2.984375-88.371094 6.519532-128.976563 30.007813-108.808594 62.9375-145.765625 201.105469-82.917968 309.964843 33.648437 58.277344 89.230468 95.972657 150.296874 108.710938 5.882813 1.226562 9.667969 6.96875 8.460938 12.855469l-8.839844 43.136719c-.976562 4.765624 4.132813 8.449218 8.347656 6.019531l24.1875-13.964844zm0 0" fill="#0478e5" data-original="#117ac9" style="" class=""/><path xmlns="http://www.w3.org/2000/svg" d="m232.527344 198.910156h38.285156c8.46875 0 12.875 9.484375 12.875 18.632813 0 9.488281-4.402344 18.632812-12.875 18.632812h-38.285156v108.078125c0 9.488282-12.535156 15.925782-26.761719 15.925782-14.570313 0-25.75-6.4375-25.75-15.925782v-169.398437c0-39.300781 27.105469-68.097657 59.628906-68.097657h24.390625c13.214844 0 19.652344 11.179688 19.652344 22.019532 0 11.179687-6.4375 22.023437-19.652344 22.023437h-12.871094c-10.84375 0-18.632812 5.757813-18.632812 18.292969v29.816406zm0 0" fill="#e4eaf8" data-original="#e4eaf8" style="" class=""/><path xmlns="http://www.w3.org/2000/svg" d="m210.824219 344.253906v-169.398437c0-37.738281 24.996093-65.777344 55.78125-67.949219-.828125-.09375-1.683594-.148438-2.570313-.148438h-24.390625c-32.527343 0-59.628906 28.796876-59.628906 68.097657v169.398437c0 9.488282 11.179687 15.925782 25.75 15.925782 5.667969 0 11.0625-1.027344 15.507813-2.855469-6.398438-2.761719-10.449219-7.363281-10.449219-13.070313zm0 0" fill="#c7d2e5" data-original="#c7d2e5" style=""/></g></svg>
