<?xml version="1.0"?>
<svg xmlns="http://www.w3.org/2000/svg" xmlns:xlink="http://www.w3.org/1999/xlink" xmlns:svgjs="http://svgjs.com/svgjs" version="1.1" width="512" height="512" x="0" y="0" viewBox="0 0 300 300" style="enable-background:new 0 0 512 512" xml:space="preserve" class=""><g><path xmlns="http://www.w3.org/2000/svg" d="m164.973 275.863c-7.922 0-16.031-.875-24.234-2.672-4.32-.938-7.055-5.203-6.109-9.516.938-4.312 5.227-7.125 9.516-6.109 26.68 5.797 52.055.406 70.906-14.812l-33.641-33.648-10.633 10.633c-9.727 9.734-25.562 9.742-35.305 0l-55.203-55.204c-9.734-9.734-9.734-25.57 0-35.305l10.633-10.633-33.649-33.648c-29.219 36.031-20.383 92.758 22.336 135.469 12.297 12.305 25.781 21.969 40.086 28.727 4 1.891 5.703 6.656 3.82 10.648-1.891 3.992-6.648 5.719-10.648 3.82-15.977-7.547-30.977-18.273-44.57-31.883-51.602-51.593-58.899-122.117-16.977-164.046 3-3 8.312-3 11.312 0l45.258 45.258c3.125 3.125 3.125 8.188 0 11.312l-16.289 16.289c-1.695 1.695-2.625 3.945-2.625 6.336 0 2.398.93 4.648 2.625 6.344l55.203 55.203c3.391 3.391 9.289 3.398 12.68 0l16.289-16.289c3.125-3.125 8.188-3.125 11.312 0l45.258 45.258c3.125 3.125 3.125 8.188 0 11.312-17.757 17.766-41.492 27.156-67.351 27.156z" fill="#0084ff" data-original="#000000" style="" class=""/><path xmlns="http://www.w3.org/2000/svg" d="m155.871 184.137c-1.18 0-2.359-.258-3.469-.789-2.766-1.336-4.531-4.133-4.531-7.211v-17.672c-18.672-4.992-32-21.789-32-41.664v-49.328c0-23.898 19.438-43.336 43.336-43.336h73.328c23.898 0 43.336 19.438 43.336 43.336v49.328c0 23.898-19.438 43.336-43.336 43.336h-43.859l-27.805 22.25c-1.445 1.156-3.218 1.75-5 1.75zm3.336-144c-15.07 0-27.336 12.266-27.336 27.336v49.328c0 14.062 10.648 25.688 24.758 27.039 4.109.391 7.242 3.836 7.242 7.961v7.688l17-13.602c1.422-1.133 3.18-1.75 5-1.75h46.664c15.07 0 27.336-12.266 27.336-27.336v-49.328c0-15.07-12.266-27.336-27.336-27.336z" fill="#0084ff" data-original="#000000" style="" class=""/><g xmlns="http://www.w3.org/2000/svg" fill="#18c2c6"><circle cx="195.871" cy="88.137" r="8" fill="#0084ff" data-original="#18c2c6" style="" class=""/><circle cx="227.871" cy="88.137" r="8" fill="#0084ff" data-original="#18c2c6" style="" class=""/><circle cx="163.871" cy="88.137" r="8" fill="#0084ff" data-original="#18c2c6" style="" class=""/></g></g></svg>
